# xmcd
#
# Track frame offsets: 
#        150
#        13777
#        26381
#        40885
#        54439
#        68217
#        78682
#        91952
#        105819
#        119000
#        132285
#        145399
#
# Disc length: 2088 seconds
#
# Revision: 0
# Processed by: cddbd v1.5.2PL0 Copyright (c) Steve Scherf et al.
# Submitted via: ExactAudioCopy v1.0b4
#
DISCID=9e08260c
DTITLE=Howlin' Wolf - Moanin' in the Moonlight
DYEAR=1959
DGENRE=Chicago Blues
TTITLE0=Moanin' at Midnight
TTITLE1=How Many More Years
TTITLE2=Smokestack Lightnin'
TTITLE3=Baby How Long
TTITLE4=No Place to Go
TTITLE5=All Night Boogie
TTITLE6=Evil
TTITLE7=I'm Leavin' You
TTITLE8=Moanin' for My Baby
TTITLE9=I Asked for Water (She Gave Me Gasoline)
TTITLE10=Forty-Four
TTITLE11=Somebody in My Home
EXTD=
EXTT0=
EXTT1=
EXTT2=
EXTT3=
EXTT4=
EXTT5=
EXTT6=
EXTT7=
EXTT8=
EXTT9=
EXTT10=
EXTT11=
PLAYORDER=
